<svg width="23" height="192" viewBox="0 0 23 192" fill="none" xmlns="http://www.w3.org/2000/svg">
<path d="M5.96003 -50C4.17962 -44.1168 -0.377932 -34.7041 1.40706 -28.0829C2.30309 -24.7592 3.14999 -21.5026 3.94007 -18.1312C5.99496 -9.36249 4.9227 1.00421 5.70353 10.0977C6.77227 22.5442 4.11706 35.2796 5.3829 47.9686C6.76138 61.7866 6.53718 76.175 6.53718 90.099C6.53718 104.388 5.70851 118.575 6.40893 132.849C6.76749 140.156 8.01664 147.347 8.23653 154.65C8.42677 160.968 9.36023 167.587 8.71745 173.895C8.54723 175.565 8.40927 187.171 10 181.407" stroke="black" stroke-width="2" stroke-linecap="round" stroke-linejoin="round"/>
<path d="M17.96 -43C16.1796 -37.1168 11.6221 -27.7041 13.4071 -21.0829C14.3031 -17.7592 15.15 -14.5026 15.9401 -11.1312C17.995 -2.36249 16.9227 8.00421 17.7035 17.0977C18.7723 29.5442 16.1171 42.2796 17.3829 54.9686C18.7614 68.7866 18.5372 83.175 18.5372 97.099C18.5372 111.388 17.7085 125.575 18.4089 139.849C18.7675 147.156 20.0166 154.347 20.2365 161.65C20.4268 167.968 21.3602 174.587 20.7174 180.895C20.5472 182.565 20.4093 194.171 22 188.407" stroke="black" stroke-width="2" stroke-linecap="round" stroke-linejoin="round"/>
</svg>
