<svg width="498" height="289" viewBox="0 0 498 289" fill="none" xmlns="http://www.w3.org/2000/svg">
<path d="M94.5297 234.274C155.351 239.918 192.397 275.121 237.184 283.937C314.593 299.175 315.146 267.571 388.685 254.591C405.825 249.324 475.825 211.7 481.576 182.354C488.764 145.671 494.293 121.403 460.565 81.3341C426.836 41.2648 350.533 49.1658 299.664 36.1856C248.795 23.2054 191.844 4.01736 132.129 1.19559C72.413 -1.62619 44.2137 26.5914 26.5202 53.1161C8.82666 79.6408 8.27374 124.225 14.9088 164.858C21.5439 205.492 33.7082 228.631 94.5297 234.274Z" stroke="#303030"/>
<path d="M88.0394 223.141C151.416 228.274 190.019 260.288 236.687 268.306C317.349 282.163 317.925 253.422 394.554 241.618C412.415 236.828 485.356 202.612 491.348 175.924C498.838 142.565 504.599 120.496 469.454 84.0564C434.309 47.6171 354.799 54.8023 301.793 42.9981C248.787 31.1938 189.443 13.744 127.218 11.1779C64.9934 8.61172 35.6093 34.273 17.1723 58.3948C-1.26465 82.5166 -1.84079 123.062 5.07306 160.014C11.9869 196.967 24.6623 218.009 88.0394 223.141Z" stroke="#303030"/>
</svg>
