<svg width="111" height="276" viewBox="0 0 111 276" fill="none" xmlns="http://www.w3.org/2000/svg">
<path d="M54.1445 7.74988C54.0003 31.555 51.2556 55.3272 51.2556 79.1381C51.2556 84.8832 49.9503 100.56 60.0508 98.9111C67.1284 97.7555 71.8551 94.5514 77.5768 90.5011C83.4476 86.3454 90.533 79.4893 98.1844 79.3949C106.692 79.2898 111.725 86.1424 108.777 94.1604C104.922 104.645 92.0147 109.498 83.0337 114.64C66.015 124.383 51.3239 136.481 36.8111 149.563C30.4208 155.324 25.478 162.324 20.0554 168.951C16.9863 172.702 12.4368 178.517 13.3788 183.781C14.7786 191.603 26.5307 194.849 33.3444 193.218C40.4664 191.513 45.0412 186.073 51.8334 183.973C66.3346 179.491 63.6098 215.254 63.2607 222.043C62.5885 235.113 61.6557 247.966 61.6557 261.075C61.6557 263.121 60.1917 275.224 59.9224 274.685" stroke="black" stroke-width="2" stroke-linecap="round" stroke-linejoin="round"/>
<path d="M41.8917 1C41.7475 24.8052 39.0028 48.5774 39.0028 72.3882C39.0028 78.1334 37.6975 93.8103 47.798 92.1612C54.8756 91.0056 59.6023 87.8015 65.324 83.7513C71.1948 79.5956 78.2802 72.7394 85.9316 72.645C94.4395 72.54 99.4721 79.3925 96.5243 87.4105C92.6697 97.8951 79.7619 102.748 70.7809 107.89C53.7622 117.633 39.071 129.732 24.5583 142.813C18.168 148.574 13.2251 155.574 7.80259 162.201C4.73353 165.952 0.184009 171.767 1.12599 177.031C2.52578 184.853 14.2779 188.1 21.0916 186.468C28.2136 184.763 32.7884 179.323 39.5806 177.224C54.0818 172.741 51.357 208.504 51.0079 215.293C50.3357 228.363 49.4029 241.217 49.4029 254.325C49.4029 256.371 47.9389 268.474 47.6696 267.935" stroke="black" stroke-width="2" stroke-linecap="round" stroke-linejoin="round"/>
</svg>
